:SAMPLES-PER-SECOND 30
:FULLY-SPECIFIED
:DEGREES
369
root  -1.13598 6.05025 15.1674 -47.813 -7.67371 0.647184
RightUpLeg  -84.6468 -9.84367 7.9161
RightLeg  87.8745 15.9728 -6.86429
RightFoot  29.9449 2.47387 -6.56188
RightToes  5.82077e-011 -3.18055e-015 -2.98177e-016
Spine  32.473 -5.60591 11.1255
Spine1  13.778 -2.69555 -8.85158
HEad  -25.7654 -32.5837 -13.6618
LeftShoulder1  -3.88251e-019 9.70628e-020 -3.87848e-018
LeftArm  -17.424 83.632 -55.7283
LeftForeArm  8.90745 -3.45747 -3.16945
LeftHand  -12.933 -11.9257 75.9145
RightShoulder  6.95534 10.264 33.1801
RightArm  29.0594 -63.6192 -17.7066
RightForeArm  5.53009 11.7019 -4.31915
RightHand  -9.66591 8.7427 -69.2461
LeftUpLeg  -85.1618 7.29488 6.19771
LeftLeg  88.116 -13.7964 11.7547
LeftFoot  34.3337 -0.578157 1.54466
LeftToes  5.91571e-011 -3.44359e-011 -3.93244e-011
370
root  -1.19717 6.0563 15.2206 -47.5549 -7.27852 0.999717
RightUpLeg  -85.1588 -9.60447 7.46581
RightLeg  87.9077 15.9887 -7.29036
RightFoot  30.1951 2.50752 -6.60665
RightToes  5.82077e-011 -3.18055e-015 -2.98177e-016
Spine  32.5667 -6.06129 9.98889
Spine1  13.0264 -3.22811 -10.0906
HEad  -26.2732 -29.6204 -16.7582
LeftShoulder1  -3.88251e-019 9.70628e-020 -3.87848e-018
LeftArm  -7.55535 84.5908 -45.7179
LeftForeArm  7.55648 -3.57398 -3.33867
LeftHand  -12.9052 -11.7426 76.4041
RightShoulder  7.17659 10.3692 34.0965
RightArm  26.8588 -62.765 -15.7258
RightForeArm  7.67547 10.271 -3.97452
RightHand  -9.60565 8.77272 -68.7974
LeftUpLeg  -85.4238 7.65159 5.51182
LeftLeg  88.1447 -13.801 11.7319
LeftFoot  34.2793 -0.544315 1.46913
LeftToes  5.91571e-011 -3.44359e-011 -3.93244e-011
371
root  -1.25484 6.06812 15.2962 -47.0299 -6.74908 1.50733
RightUpLeg  -86.0332 -9.312 6.87696
RightLeg  87.9837 16.0157 -7.9055
RightFoot  30.5415 2.57132 -6.71144
RightToes  5.82077e-011 -3.18055e-015 -2.98177e-016
Spine  32.0556 -5.94612 8.35074
Spine1  12.8246 -3.64419 -10.203
HEad  -26.5995 -26.3362 -19.4268
LeftShoulder1  -3.88251e-019 9.70628e-020 -3.87848e-018
LeftArm  -2.22281 85.2681 -40.4055
LeftForeArm  6.65607 -3.47914 -3.37564
LeftHand  -12.727 -11.443 76.635
RightShoulder  7.2362 10.4032 34.3274
RightArm  24.4778 -62.3699 -13.5604
RightForeArm  9.0623 8.79082 -4.0722
RightHand  -9.6341 8.82862 -68.746
LeftUpLeg  -85.97 8.05981 4.5294
LeftLeg  88.222 -13.8139 11.69
LeftFoot  34.1896 -0.566139 1.52148
LeftToes  5.91571e-011 -3.44359e-011 -3.93244e-011
372
root  -1.27865 6.0965 15.3295 -46.5938 -6.84883 1.69995
RightUpLeg  -86.4555 -8.93771 6.89439
RightLeg  87.927 16.0194 -8.23264
RightFoot  30.6172 2.5434 -6.63004
RightToes  5.82077e-011 -3.18055e-015 -2.98177e-016
Spine  31.8759 -5.73751 7.68353
Spine1  12.382 -3.75722 -9.91316
HEad  -27.184 -23.711 -21.1233
LeftShoulder1  -3.88251e-019 9.70628e-020 -3.87848e-018
LeftArm  -0.268452 85.79 -38.5791
LeftForeArm  6.40124 -3.46102 -3.27207
LeftHand  -12.4807 -11.2051 76.3561
RightShoulder  7.2418 10.419 34.3214
RightArm  23.3046 -62.3587 -12.7748
RightForeArm  9.30027 8.19739 -4.396
RightHand  -9.53968 8.70554 -68.6799
LeftUpLeg  -86.3616 8.51222 4.33851
LeftLeg  88.3114 -13.8242 11.5526
LeftFoot  34.1729 -0.63342 1.67565
LeftToes  5.91571e-011 -3.44359e-011 -3.93244e-011
373
root  -1.26631 6.11413 15.3494 -46.3284 -7.02838 1.63308
RightUpLeg  -86.6458 -8.91314 7.07112
RightLeg  87.926 16.0163 -8.14383
RightFoot  30.4174 2.42006 -6.35408
RightToes  5.82077e-011 -3.18055e-015 -2.98177e-016
Spine  31.8343 -5.50568 7.68636
Spine1  12.084 -3.68844 -9.40316
HEad  -28.2878 -21.3753 -21.3009
LeftShoulder1  -3.88251e-019 9.70628e-020 -3.87848e-018
LeftArm  -2.4789 85.9699 -41.0645
LeftForeArm  6.58909 -3.44343 -3.15129
LeftHand  -12.3204 -11.1051 75.9797
RightShoulder  7.21933 10.425 34.1931
RightArm  23.7449 -62.5242 -13.4792
RightForeArm  8.61555 8.59286 -4.58811
RightHand  -9.34885 8.47085 -68.4909
LeftUpLeg  -86.6256 8.56869 4.49603
LeftLeg  88.4037 -13.836 11.4431
LeftFoot  34.282 -0.718755 1.86658
LeftToes  5.91571e-011 -3.44359e-011 -3.93244e-011
374
root  -1.22351 6.09824 15.379 -46.3494 -6.96654 1.49455
RightUpLeg  -86.7272 -9.30608 7.06847
RightLeg  88.123 16.027 -7.73722
RightFoot  30.2075 2.3265 -6.15161
RightToes  5.82077e-011 -3.18055e-015 -2.98177e-016
Spine  31.5767 -5.15829 7.81684
Spine1  12.5474 -3.52321 -8.54088
HEad  -29.9373 -18.5019 -20.064
LeftShoulder1  -3.88251e-019 9.70628e-020 -3.87848e-018
LeftArm  -9.88376 85.661 -49.0179
LeftForeArm  6.73183 -3.24962 -3.18214
LeftHand  -12.3509 -11.1193 76.0676
RightShoulder  7.11826 10.404 33.7191
RightArm  24.607 -62.7949 -14.3967
RightForeArm  7.76243 9.18231 -4.6538
RightHand  -9.3325 8.43997 -68.5149
LeftUpLeg  -86.7254 8.22159 4.55248
LeftLeg  88.5436 -13.8603 11.4145
LeftFoot  34.4332 -0.824107 2.10031
LeftToes  5.91571e-011 -3.44359e-011 -3.93244e-011
